<svg xmlns="http://www.w3.org/2000/svg" version="1.1" xmlns:xlink="http://www.w3.org/1999/xlink" width="512" height="512" x="0" y="0" viewBox="0 0 64 64" style="enable-background:new 0 0 512 512" xml:space="preserve" class=""><g><path d="M28.519 11.335v1.085a.168.168 0 0 1-.083.153 8.562 8.562 0 0 0-1.254.7.254.254 0 0 1-.242-.015l-.972-.543a.998.998 0 0 0-1.176.149 9.914 9.914 0 0 0-2.758 4.624 1 1 0 0 0 .479 1.13l1.083.606a7.547 7.547 0 0 0 0 1.552l-1.083.605a1 1 0 0 0-.479 1.131 9.926 9.926 0 0 0 2.752 4.627 1 1 0 0 0 1.177.149l.977-.546a.251.251 0 0 1 .242-.013 8.497 8.497 0 0 0 1.254.698.17.17 0 0 1 .083.153v1.09a1 1 0 0 0 .741.966A10.662 10.662 0 0 0 32.01 30h.123a10.645 10.645 0 0 0 2.608-.369 1 1 0 0 0 .741-.966V27.58a.17.17 0 0 1 .082-.153 8.523 8.523 0 0 0 1.255-.699.251.251 0 0 1 .241.014l.973.543a.999.999 0 0 0 1.177-.149 9.923 9.923 0 0 0 2.757-4.624 1 1 0 0 0-.479-1.13l-1.083-.606a7.456 7.456 0 0 0 0-1.552l1.083-.605a1 1 0 0 0 .479-1.131 9.926 9.926 0 0 0-2.752-4.627 1 1 0 0 0-1.177-.149l-.978.546a.246.246 0 0 1-.241.013 8.551 8.551 0 0 0-1.254-.698.17.17 0 0 1-.083-.153v-1.09a1 1 0 0 0-.741-.966 10.413 10.413 0 0 0-5.48.005 1 1 0 0 0-.741.966Zm2 1.085v-.285a8.28 8.28 0 0 1 2.962-.003v.288a2.165 2.165 0 0 0 1.26 1.976 6.551 6.551 0 0 1 .96.534 2.248 2.248 0 0 0 2.334.074l.303-.17a7.918 7.918 0 0 1 1.46 2.437l-.97.542a1 1 0 0 0-.496 1.061 5.7 5.7 0 0 1 0 2.252 1 1 0 0 0 .495 1.06l.972.543a7.925 7.925 0 0 1-1.465 2.434l-.299-.167a2.247 2.247 0 0 0-2.335.074 6.461 6.461 0 0 1-.96.534 2.165 2.165 0 0 0-1.259 1.976v.285a8.326 8.326 0 0 1-1.374.135 8.645 8.645 0 0 1-1.588-.132v-.288a2.165 2.165 0 0 0-1.26-1.976 6.455 6.455 0 0 1-.958-.533 2.246 2.246 0 0 0-2.336-.075l-.303.17a7.918 7.918 0 0 1-1.46-2.437l.97-.542a1 1 0 0 0 .495-1.06 5.735 5.735 0 0 1 0-2.254 1 1 0 0 0-.495-1.06l-.97-.542a7.913 7.913 0 0 1 1.464-2.434l.298.166a2.246 2.246 0 0 0 2.336-.073 6.539 6.539 0 0 1 .959-.534 2.164 2.164 0 0 0 1.26-1.976Z" fill="#25405B" opacity="1" data-original="#000000"></path><path d="M32 25a5 5 0 1 0-5-5 5.006 5.006 0 0 0 5 5Zm0-8a3 3 0 1 1-3 3 3.003 3.003 0 0 1 3-3ZM32.923 8.035l.154-1.994a14.151 14.151 0 0 0-2.154 0l.154 1.994a12.142 12.142 0 0 1 1.846 0Z" fill="#25405B" opacity="1" data-original="#000000"></path><path d="m28.77 33.623.46-1.946A12.015 12.015 0 0 1 20 20.25V20a11.944 11.944 0 0 1 9.23-11.677l-.46-1.946A13.936 13.936 0 0 0 18 20v.271a14.015 14.015 0 0 0 10.77 13.352ZM33.077 33.959l-.154-1.994a12.142 12.142 0 0 1-1.846 0l-.154 1.994Q31.457 34 32 34t1.077-.041ZM41.46 12.613a11.946 11.946 0 0 1 2.198 4.543A12.094 12.094 0 0 1 44 20a11.944 11.944 0 0 1-9.23 11.677l.46 1.946a14.005 14.005 0 0 0 7.806-22.241 14.102 14.102 0 0 0-7.806-5.005l-.46 1.946a12.09 12.09 0 0 1 6.69 4.29ZM54.133 45a9 9 0 1 0 9 9 9.01 9.01 0 0 0-9-9Zm3.571 15.01a6.934 6.934 0 0 1-7.143 0V58.57a2.431 2.431 0 0 1 2.429-2.428h2.285a2.431 2.431 0 0 1 2.43 2.428Zm-5.429-7.724a1.857 1.857 0 1 1 1.858 1.857 1.86 1.86 0 0 1-1.858-1.857Zm7.398 5.976a4.412 4.412 0 0 0-2.475-3.661 3.82 3.82 0 0 0 .792-2.315 3.857 3.857 0 0 0-7.715 0 3.82 3.82 0 0 0 .792 2.315 4.412 4.412 0 0 0-2.475 3.66 7 7 0 1 1 11.08.001ZM41 54a9 9 0 1 0-9 9 9.01 9.01 0 0 0 9-9Zm-5.429 6.01a6.934 6.934 0 0 1-7.142 0V58.57a2.431 2.431 0 0 1 2.428-2.428h2.286a2.431 2.431 0 0 1 2.428 2.428Zm-5.428-7.724A1.857 1.857 0 1 1 32 54.143a1.859 1.859 0 0 1-1.857-1.857Zm4.923 2.315a3.82 3.82 0 0 0 .79-2.315 3.857 3.857 0 0 0-7.713 0 3.82 3.82 0 0 0 .791 2.315 4.411 4.411 0 0 0-2.474 3.661 7 7 0 1 1 11.08 0 4.411 4.411 0 0 0-2.474-3.661ZM10 63a9 9 0 1 0-9-9 9.01 9.01 0 0 0 9 9Zm3.571-2.99a6.934 6.934 0 0 1-7.142 0V58.57a2.431 2.431 0 0 1 2.428-2.428h2.286a2.431 2.431 0 0 1 2.428 2.428Zm-5.428-7.724A1.857 1.857 0 1 1 10 54.143a1.859 1.859 0 0 1-1.857-1.857ZM10 47a6.988 6.988 0 0 1 5.54 11.262 4.411 4.411 0 0 0-2.474-3.661 3.82 3.82 0 0 0 .79-2.315 3.857 3.857 0 0 0-7.713 0 3.82 3.82 0 0 0 .791 2.315 4.411 4.411 0 0 0-2.474 3.661A6.988 6.988 0 0 1 10 47Z" fill="#25405B" opacity="1" data-original="#000000"></path><path d="M55 44v-4a1 1 0 0 0-1-1H33v-4h-2v4H10a1 1 0 0 0-1 1v4h2v-3h20v3h2v-3h20v3ZM5 31l.077-.003 5.842-.45a68.458 68.458 0 0 0 8.282-1.168l-.402-1.959a66.519 66.519 0 0 1-8.036 1.133L6 28.92V22h3.06a67.27 67.27 0 0 0 8.06-.483l-.24-1.986A65.3 65.3 0 0 1 9.06 20H5a1 1 0 0 0-1 1v9a1 1 0 0 0 1 1ZM46.947 10.157l6.15-4.34a1 1 0 0 0 .102-1.55l-.564-.524 5.202-.602-.65 4.817-.748-.692a1 1 0 0 0-1.306-.045l-8.76 7.052 1.254 1.558 8.087-6.51 1.527 1.413a1 1 0 0 0 1.67-.6l1.08-8a1 1 0 0 0-1.106-1.127l-8.64 1a1 1 0 0 0-.564 1.727l1.254 1.161-5.14 3.626q-1.15.808-2.333 1.563l1.076 1.687q1.221-.78 2.409-1.614Z" fill="#25405B" opacity="1" data-original="#000000"></path></g></svg>