<svg xmlns="http://www.w3.org/2000/svg" version="1.1" xmlns:xlink="http://www.w3.org/1999/xlink" width="512" height="512" x="0" y="0" viewBox="0 0 494 494.795" style="enable-background:new 0 0 512 512" xml:space="preserve" class=""><g><path d="M365.012 370.797H232.867c-6.219-26.57-29.902-45.367-57.191-45.383h-12.567a7.002 7.002 0 0 0-6.734 5.09l-15.309 53.953-10.918-19.5 9.055-28.918a6.994 6.994 0 0 0-1.039-6.238 6.998 6.998 0 0 0-5.64-2.856h-31.786a7.009 7.009 0 0 0-5.64 2.856 7.006 7.006 0 0 0-1.04 6.238l9.094 29.027-9.34 18.02-13.738-53.574a7.001 7.001 0 0 0-7.351-5.239l-13.895 1.141a58.741 58.741 0 0 0-43.25 19.316A58.736 58.736 0 0 0 .66 389.688v98.109c0 3.863 3.133 7 7 7h307.344a7 7 0 0 0 6.371-4.102l50-110a6.99 6.99 0 0 0-.484-6.687 6.988 6.988 0 0 0-5.887-3.211zm-242.02-29.856-5.57 17.782h-1.586l-5.57-17.782zm-108.367 47.7a44.719 44.719 0 0 1 44.5-49.223c.191 0 .383-.008.574-.023l8.285-.68 16.829 65.613a7.006 7.006 0 0 0 5.667 5.176 7.003 7.003 0 0 0 7.333-3.7l17.14-33.077h3.5l18.637 33.285a6.998 6.998 0 0 0 12.84-1.512l18.468-65.086h7.278c19.562.008 36.851 12.715 42.699 31.383h-23.363a7.003 7.003 0 0 0-6.375 4.098l-48.133 105.902H14.66v-91.453c0-.235-.012-.469-.035-.703zm295.871 92.16H155.875l43.637-96h154.62zM115.652 317.61c31.34-.036 56.743-25.434 56.778-56.774v-19.914c0-31.356-25.422-56.777-56.778-56.777-31.359 0-56.777 25.421-56.777 56.777v19.914c.035 31.34 25.434 56.738 56.777 56.773zm-42.777-76.688c0-23.625 19.152-42.777 42.777-42.777s42.778 19.152 42.778 42.777v19.914c0 23.625-19.153 42.773-42.778 42.773s-42.777-19.148-42.777-42.773zM413.84 180.172a18.512 18.512 0 0 0-28.336-20.774 18.506 18.506 0 0 0-6.984 20.504 29.657 29.657 0 0 0-12.149 21.18c-.039.41-.086.875-.144 20.227 0 16.464 13.343 29.808 29.804 29.808s29.809-13.344 29.809-29.808v-17.25c0-9.41-4.45-18.27-12-23.887zm-27.05 11.05a15.806 15.806 0 0 1 25 11.868c-13.08-2.156-20.919-7.82-25-11.867zm4.92-16.726c.036-2.465 2.048-4.441 4.513-4.441s4.472 1.976 4.511 4.441c0 .043-.011.086-.015.129a30.09 30.09 0 0 0-9-.063c-.004-.023-.008-.042-.008-.066zm4.321 62.621c-8.719-.004-15.789-7.066-15.804-15.785 0-.852.003-1.777.007-2.738a23.967 23.967 0 0 0 10.664-7.555 66.173 66.173 0 0 0 20.938 6.207v4.066c-.008 8.727-7.078 15.797-15.805 15.805zm0 0" fill="#25405B" opacity="1" data-original="#000000" class=""></path><path d="M396.828 139.945c-43.71.004-82.02 29.239-93.558 71.403-11.54 42.16 6.546 86.828 44.164 109.09v25.625a6.994 6.994 0 0 0 3.613 6.125 6.994 6.994 0 0 0 7.11-.196l29.46-18.48a97.78 97.78 0 0 0 9.211.433c53.574 0 97-43.43 97-97 0-53.574-43.426-97-97-97zM386.79 319.344a6.98 6.98 0 0 0-4.559 1.027l-20.8 13.043v-17.066a6.996 6.996 0 0 0-3.7-6.172 83.012 83.012 0 0 1-4.183-2.406V280.19c0-.234-.012-.468-.035-.703a16.696 16.696 0 0 1 16.613-18.379h1.934l1.875 4.254a25.107 25.107 0 0 0 45.93.864l2.374-5.118h1.29c4.722 0 9.218 2 12.382 5.504a16.673 16.673 0 0 1 4.227 12.875 7.082 7.082 0 0 0-.035.707v27.543a82.521 82.521 0 0 1-43.278 12.207 84.53 84.53 0 0 1-10.035-.601zm67.32-22.414v-16.403a30.691 30.691 0 0 0-7.93-23.437 30.681 30.681 0 0 0-22.64-9.977h-5.758a7.006 7.006 0 0 0-6.351 4.051l-4.258 9.172a11.107 11.107 0 0 1-20.332-.414c-.02-.047-.04-.102-.059-.145l-3.75-8.492a6.994 6.994 0 0 0-6.398-4.172h-6.504a30.703 30.703 0 0 0-30.578 33.414v16.508c-24.614-23.398-32.5-59.426-19.918-90.972 12.586-31.543 43.11-52.247 77.07-52.278 33.961-.027 64.52 20.621 77.16 52.145 12.64 31.52 4.817 67.562-19.758 91.008zM187.438 180.438v25.625a6.99 6.99 0 0 0 3.609 6.125 6.993 6.993 0 0 0 7.11-.196l29.46-18.48a97.78 97.78 0 0 0 9.211.433c48.567-.015 89.629-35.949 96.086-84.086 6.453-48.132-23.691-93.617-70.535-106.425s-95.941 11.007-114.875 55.73c-18.934 44.719-1.867 96.55 39.934 121.273zm39.351-1.094a7.01 7.01 0 0 0-4.559 1.027l-20.8 13.043v-17.066a6.996 6.996 0 0 0-3.7-6.172 83.79 83.79 0 0 1-8.421-5.18l-.325-22.383c0-.226-.02-.453-.043-.675a18.814 18.814 0 0 1 4.61-14.555 18.8 18.8 0 0 1 13.89-6.332c.192 0 .383-.012.57-.028l1.188-.109 7.961 29.79a7.01 7.01 0 0 0 5.516 5.081 7.002 7.002 0 0 0 7.496-3.734l6.273-12.41 7.153 12.476a7.006 7.006 0 0 0 6.96 3.461 6.996 6.996 0 0 0 5.864-5.101l8.187-30.004.98-.012a18.805 18.805 0 0 1 18.922 20.508 6.454 6.454 0 0 0-.027.726l.29 22.938a82.511 82.511 0 0 1-47.95 15.316 84.535 84.535 0 0 1-10.035-.605zm10.04-165.399c32.741-.023 62.433 19.223 75.788 49.117 13.356 29.899 7.871 64.852-13.996 89.223l-.133-10.433a32.801 32.801 0 0 0-33.031-35.39l-6.273.061a6.997 6.997 0 0 0-6.68 5.157l-5.14 18.843-2.102-3.66a7.024 7.024 0 0 0-6.14-3.515l-5.919.058a7.005 7.005 0 0 0-6.18 3.84l-1.066 2.125-4.754-17.777a7.005 7.005 0 0 0-7.406-5.164l-6.797.629a32.813 32.813 0 0 0-23.906 11.02 32.81 32.81 0 0 0-8.102 25.046l.121 9.34c-21.918-24.371-27.445-59.356-14.11-89.293 13.34-29.942 43.048-49.227 75.825-49.227zm0 0" fill="#25405B" opacity="1" data-original="#000000" class=""></path><path d="M212.938 100.793a31.622 31.622 0 0 0 22.269 9.098h.332c17.582-.176 31.691-14.575 31.512-32.153l-.235-23.203c-.152-13.902-11.46-25.101-25.367-25.117h-.261l-26.54.27c-6.496.066-11.707 5.386-11.636 11.882l.37 36.813a31.631 31.631 0 0 0 9.556 22.41zm35.019-10.258a17.835 17.835 0 0 1-30.574-12.3l-.094-9.262a17.613 17.613 0 0 1 9.336-8.024 36.062 36.062 0 0 0 18.281 5.2 34.407 34.407 0 0 0 8.016-.97l.129 12.704a17.692 17.692 0 0 1-5.094 12.652zm-6.625-47.117h.117a11.387 11.387 0 0 1 10.645 7.418c-10.91 3.73-19.656-1.773-25.192-7.27zm0 0" fill="#25405B" opacity="1" data-original="#000000" class=""></path></g></svg>