<svg xmlns="http://www.w3.org/2000/svg" version="1.1" xmlns:xlink="http://www.w3.org/1999/xlink" width="512" height="512" x="0" y="0" viewBox="0 0 62 62" style="enable-background:new 0 0 512 512" xml:space="preserve" class=""><g><path d="M17.509 33.557a8.6 8.6 0 0 0 2.729.443c.945 0 1.877-.162 2.762-.461v3.698L25.382 42H14v2h14c.998 0 1.896-.555 2.342-1.447L33 37.236v-9.438c.375.121.766.2 1.171.2A3.834 3.834 0 0 0 38 24.17a3.8 3.8 0 0 0-1.122-2.707l-3.766-3.766c-.036-.036-.076-.066-.113-.101V5c0-2.757-2.243-5-5-5s-5 2.243-5 5v11h-.868c-.896 0-1.792.212-2.592.611l-5.919 2.96A2.986 2.986 0 0 0 11 18H0v16h11a2.997 2.997 0 0 0 2.699-1.713zM25.762 32 27 30.968V36h-2v-3.441a8.41 8.41 0 0 0 .762-.559zM25 10h2v12.499a7.4 7.4 0 0 0-2 1.15zm4 0h2v12.279A3.296 3.296 0 0 0 29.675 22a7.55 7.55 0 0 0-.675.033zm0 26v-6.625c.535-.371 1.103-.688 1.727-.897.095-.032.182-.076.273-.116V36zm-.447 5.658c-.211.422-.895.422-1.105 0L25.618 38h4.764zm6.912-18.78a1.83 1.83 0 0 1-1.294 3.121c-.435 0-.843-.159-1.171-.436v-5.15zM28 2c1.654 0 3 1.346 3 3v3h-6V5c0-1.654 1.346-3 3-3zm-7.565 16.4a3.814 3.814 0 0 1 1.697-.4H23v7.501a2.98 2.98 0 0 1-1.657.499L18 25.999l-.001 2 3.344.001a4.972 4.972 0 0 0 3.536-1.465l.937-.937A5.42 5.42 0 0 1 29.675 24a1.326 1.326 0 0 1 .42 2.581 8.87 8.87 0 0 0-2.877 1.602l-2.736 2.28c-1.739 1.449-4.2 1.912-6.34 1.197L14 30.28v-8.661zM12 31c0 .552-.449 1-1 1H2V20h9c.551 0 1 .448 1 1zM49 5c-4.411 0-8 3.589-8 8s3.589 8 8 8 8-3.589 8-8-3.589-8-8-8zm0 14c-3.309 0-6-2.691-6-6s2.691-6 6-6 6 2.691 6 6-2.691 6-6 6z" fill="#25405B" opacity="1" data-original="#000000" class=""></path><path d="M49 9c-2.206 0-4 1.794-4 4s1.794 4 4 4 4-1.794 4-4-1.794-4-4-4zm0 6c-1.103 0-2-.897-2-2s.897-2 2-2 2 .897 2 2-.897 2-2 2z" fill="#25405B" opacity="1" data-original="#000000" class=""></path><path d="M60.174 8.648a11.998 11.998 0 0 0-.196-.471l.836-1.749-5.244-5.241-1.748.836a11.747 11.747 0 0 0-.471-.196L52.708 0h-7.415l-.645 1.826c-.157.062-.314.127-.471.196l-1.747-.835-5.244 5.242.836 1.749c-.069.155-.134.313-.196.471L36 9.292v7.416l1.826.644c.062.158.127.315.196.471l-.836 1.749 5.244 5.242 1.748-.836c.157.069.314.135.471.196L45.292 26h7.415l.645-1.826c.157-.062.314-.127.471-.196l1.748.836 5.244-5.242-.836-1.749c.069-.155.134-.313.196-.471L62 16.708V9.292zM60 15.292l-1.392.491-.157.458a9.742 9.742 0 0 1-.477 1.146l-.214.436.638 1.335-3.242 3.242-1.334-.639-.435.214a9.84 9.84 0 0 1-1.146.477l-.458.156L51.292 24h-4.585l-.491-1.393-.458-.156a9.84 9.84 0 0 1-1.146-.477l-.435-.214-1.334.639-3.242-3.242.638-1.335-.214-.436a9.742 9.742 0 0 1-.477-1.146l-.157-.458-1.391-.49v-4.584l1.392-.491.157-.458c.132-.385.292-.771.477-1.146l.214-.436-.638-1.335L42.844 3.6l1.334.639.435-.214a9.84 9.84 0 0 1 1.146-.477l.458-.156L46.708 2h4.585l.491 1.393.458.156c.38.13.765.29 1.146.477l.435.214 1.334-.639 3.242 3.242-.638 1.335.214.436c.185.375.345.761.477 1.146l.157.458 1.391.49zM14 48v2h1c17.421 0 35-6.803 35-22h-2c0 13.815-16.574 20-33 20z" fill="#25405B" opacity="1" data-original="#000000" class=""></path><path d="M54 60h-2V44h-8v16h-2V48h-8v12h-2V50h-8v10h-2v-8h-8v10h48V38h-8zm-34 0h-4v-6h4zm26-14h4v14h-4zm-10 4h4v10h-4zm-10 2h4v8h-4zm30-12h4v20h-4z" fill="#25405B" opacity="1" data-original="#000000" class=""></path></g></svg>