<svg width="653" height="1180" viewBox="0 0 653 1180" fill="none" xmlns="http://www.w3.org/2000/svg">
<path d="M0.212417 0H653V610.32L493.884 519.428C493.534 519.226 493.243 518.934 493.042 518.582C492.84 518.231 492.734 517.831 492.734 517.424V155.877C492.734 154.692 492.136 154.1 490.94 154.1L406.069 154.187C405.476 154.187 405.18 154.478 405.18 155.058L405.215 459.704C405.217 459.845 405.181 459.984 405.111 460.107C405.04 460.229 404.938 460.331 404.814 460.401C404.691 460.472 404.55 460.509 404.406 460.509C404.262 460.509 404.121 460.472 403.995 460.401L249.687 368.638C249.433 368.489 249.223 368.276 249.076 368.019C248.929 367.763 248.852 367.471 248.851 367.175V155.058C248.851 154.478 248.561 154.187 247.98 154.187L158.231 154.17C157.697 154.17 157.43 154.437 157.43 154.971L157.412 393.674L0.160156 304.019L0.212417 0Z" fill="url(#paint0_linear_1036_3063)"/>
<path d="M157.412 393.674L653 676.298V1176.7L1.5711 1179.56C0.653633 1179.56 0.189094 1179.09 0.177481 1178.16L0.16006 763.444C0.157817 763.347 0.181058 763.251 0.227472 763.165C0.273887 763.08 0.341861 763.008 0.424639 762.957C0.507418 762.906 0.602121 762.877 0.699338 762.874C0.796556 762.871 0.892904 762.893 0.97881 762.939L155.548 844.736C156.326 845.155 156.716 845.799 156.716 846.67L156.733 1023.66C156.733 1024.17 156.988 1024.43 157.499 1024.43H490.992C491.223 1024.43 491.445 1024.34 491.608 1024.17C491.771 1024.01 491.863 1023.79 491.863 1023.56V827.976C491.863 827.372 491.602 826.919 491.079 826.617L0.94397 543.784C0.421364 543.482 0.16006 543.029 0.16006 542.425V304.019L157.412 393.674Z" fill="url(#paint1_linear_1036_3063)"/>
<defs>
<linearGradient id="paint0_linear_1036_3063" x1="326.58" y1="0" x2="326.58" y2="610.32" gradientUnits="userSpaceOnUse">
<stop stop-color="#3F80A3"/>
<stop offset="1" stop-color="#2F679B"/>
</linearGradient>
<linearGradient id="paint1_linear_1036_3063" x1="326.58" y1="304.019" x2="326.58" y2="1179.56" gradientUnits="userSpaceOnUse">
<stop stop-color="#F0A946"/>
<stop offset="1" stop-color="#E69728"/>
</linearGradient>
</defs>
</svg>
