<?xml version="1.0" encoding="UTF-8" standalone="no"?>
<!DOCTYPE svg PUBLIC "-//W3C//DTD SVG 1.1//EN" "http://www.w3.org/Graphics/SVG/1.1/DTD/svg11.dtd">
<svg xmlns="http://www.w3.org/2000/svg" version="1.1" viewBox="0.00 0.00 376.00 772.00">
<path stroke="#908967" stroke-width="2.00" fill="none" stroke-linecap="butt" vector-effect="non-scaling-stroke" d="
  M 91.51 225.96
  L 1.24 174.50"
/>
<path fill="#397aa6" d="
  M 1.27 0.00
  L 376.00 0.00
  L 376.00 350.31
  L 284.66 298.14
  A 1.33 1.32 -75.2 0 1 284.00 296.99
  L 284.00 89.47
  Q 284.00 88.45 282.97 88.45
  L 234.25 88.50
  Q 233.74 88.50 233.74 89.00
  L 233.76 263.86
  A 0.47 0.46 15.2 0 1 233.06 264.26
  L 144.48 211.59
  A 0.98 0.97 -75.0 0 1 144.00 210.75
  L 144.00 89.00
  Q 144.00 88.50 143.50 88.50
  L 91.98 88.49
  Q 91.52 88.49 91.52 88.95
  L 91.51 225.96
  L 1.24 174.50
  L 1.27 0.00
  Z"
/>
<path fill="#e69728" d="
  M 91.51 225.96
  L 376.00 388.18
  L 376.00 675.40
  L 2.05 677.04
  Q 1.26 677.04 1.25 676.24
  L 1.24 438.20
  A 0.32 0.32 0.0 0 1 1.71 437.91
  L 90.44 484.86
  Q 91.11 485.22 91.11 485.97
  L 91.12 587.56
  Q 91.12 588.00 91.56 588.00
  L 283.00 588.00
  A 0.50 0.50 0.0 0 0 283.50 587.50
  L 283.50 475.24
  Q 283.50 474.72 283.05 474.46
  L 1.69 312.12
  Q 1.24 311.86 1.24 311.34
  L 1.24 174.50
  L 91.51 225.96
  Z"
/>
<path fill="#2a292e" d="
  M 22.23 772.00
  L 4.53 772.00
  Q 2.08 771.80 1.12 770.68
  A 1.15 1.14 36.0 0 1 0.93 769.51
  L 3.49 763.24
  A 0.97 0.96 -60.1 0 1 4.97 762.84
  Q 10.54 767.08 17.21 765.82
  C 24.92 764.36 22.51 756.48 17.58 753.49
  Q 12.95 750.68 8.21 748.05
  C 0.46 743.73 -2.41 733.35 3.94 726.70
  C 9.82 720.54 20.47 721.11 27.65 724.55
  A 1.27 1.27 0.0 0 1 28.30 726.11
  L 26.12 732.53
  Q 25.93 733.09 25.44 732.76
  Q 20.21 729.27 15.54 729.50
  C 10.10 729.77 8.08 734.99 11.34 739.07
  C 14.40 742.89 21.26 745.31 24.17 747.33
  C 33.11 753.55 33.86 768.42 22.23 772.00
  Z"
/>
<path fill="#2a292e" d="
  M 80.91 772.00
  L 71.51 772.00
  Q 69.35 768.36 68.57 764.10
  A 1.29 1.28 84.8 0 0 67.32 763.05
  L 51.36 762.89
  Q 50.80 762.89 50.61 763.42
  L 47.55 772.00
  L 37.90 772.00
  L 56.94 723.48
  A 2.64 2.64 0.0 0 1 61.85 723.48
  L 80.91 772.00
  Z
  M 53.52 755.76
  A 0.39 0.39 0.0 0 0 53.89 756.27
  L 64.91 756.23
  A 0.39 0.39 0.0 0 0 65.28 755.72
  L 59.71 738.59
  A 0.39 0.39 0.0 0 0 58.97 738.59
  L 53.52 755.76
  Z"
/>
<path fill="#2a292e" d="
  M 198.43 772.00
  L 180.72 772.00
  L 178.80 771.44
  Q 176.72 770.83 177.54 768.82
  L 179.78 763.30
  A 1.01 1.01 0.0 0 1 181.33 762.88
  Q 186.77 767.03 193.37 765.83
  C 202.98 764.08 197.40 755.06 192.23 752.28
  C 184.79 748.27 176.80 745.12 176.97 735.64
  C 177.24 720.93 193.61 720.23 203.65 724.23
  A 1.58 1.58 0.0 0 1 204.55 726.22
  L 202.37 732.44
  A 0.44 0.43 26.2 0 1 201.71 732.66
  C 198.56 730.58 190.13 727.26 187.30 731.73
  C 181.43 741.01 198.69 744.21 203.71 750.13
  C 209.45 756.89 208.21 769.47 198.43 772.00
  Z"
/>
<path fill="#2a292e" d="
  M 123.14 772.00
  L 91.73 772.00
  L 91.75 723.58
  A 0.54 0.54 0.0 0 1 92.26 723.04
  L 99.45 722.69
  A 1.26 1.26 0.0 0 1 100.78 723.95
  L 100.65 764.57
  Q 100.65 765.25 101.33 765.25
  L 122.58 765.25
  A 0.83 0.83 0.0 0 1 123.41 766.12
  L 123.14 772.00
  Z"
/>
<path fill="#2a292e" d="
  M 166.03 772.00
  L 135.02 772.00
  L 134.94 724.06
  Q 134.93 723.01 135.98 723.01
  L 165.16 722.98
  A 1.22 1.21 -89.8 0 1 166.38 724.22
  L 166.28 730.24
  Q 166.28 730.75 165.76 730.75
  L 144.59 730.75
  A 0.66 0.65 -90.0 0 0 143.94 731.41
  L 143.96 742.11
  Q 143.96 742.50 144.36 742.50
  L 159.27 742.50
  A 0.76 0.76 0.0 0 1 160.03 743.27
  L 159.94 749.45
  Q 159.93 750.06 159.31 750.06
  L 144.51 749.97
  Q 144.00 749.97 144.00 750.49
  L 144.00 764.50
  Q 144.00 765.25 144.75 765.25
  L 165.52 765.25
  Q 166.56 765.25 166.48 766.28
  L 166.03 772.00
  Z"
/>
<path fill="#2a292e" d="
  M 288.70 772.00
  L 282.50 772.00
  L 276.66 742.28
  A 0.40 0.40 0.0 0 0 275.88 742.23
  L 265.83 772.00
  L 263.31 772.00
  L 252.83 742.24
  A 0.41 0.41 0.0 0 0 252.04 742.30
  L 246.44 772.00
  L 240.20 772.00
  L 249.07 724.24
  A 1.93 1.93 0.0 0 1 252.80 723.98
  L 264.33 758.48
  A 0.36 0.36 0.0 0 0 265.01 758.47
  Q 269.89 741.69 274.79 725.40
  C 275.34 723.57 276.16 722.26 278.27 722.91
  A 0.99 0.98 2.6 0 1 278.95 723.65
  L 288.70 772.00
  Z"
/>
<path fill="#2a292e" d="
  M 328.40 772.00
  L 299.57 772.00
  L 299.51 723.49
  A 0.49 0.48 -0.0 0 1 300.00 723.01
  L 328.40 722.98
  A 0.60 0.60 0.0 0 1 329.00 723.59
  L 328.99 728.35
  A 0.65 0.65 0.0 0 1 328.34 729.00
  L 307.52 729.00
  A 1.00 1.00 0.0 0 0 306.52 729.99
  L 306.45 742.62
  Q 306.44 743.10 306.93 743.09
  L 321.85 742.96
  Q 322.50 742.95 322.50 743.60
  L 322.50 748.23
  Q 322.50 748.95 321.78 748.94
  L 307.29 748.68
  Q 306.50 748.66 306.50 749.46
  L 306.50 766.54
  A 0.54 0.54 0.0 0 0 307.05 767.08
  L 327.52 766.74
  A 1.32 1.32 0.0 0 1 328.83 767.76
  Q 329.59 771.06 328.40 772.00
  Z"
/>
<path fill="#2a292e" d="
  M 376.00 723.01
  L 376.00 772.00
  L 372.75 772.00
  L 348.64 738.10
  A 0.36 0.36 0.0 0 0 347.99 738.31
  L 347.95 772.00
  L 341.54 772.00
  Q 341.42 749.56 341.56 727.12
  C 341.57 725.49 340.82 723.32 342.90 722.74
  A 1.45 1.44 -25.8 0 1 344.46 723.28
  L 369.08 756.66
  A 0.26 0.25 26.8 0 0 369.54 756.51
  L 369.48 723.72
  Q 369.48 723.07 370.14 723.06
  L 376.00 723.01
  Z"
/>
</svg>
