<svg xmlns="http://www.w3.org/2000/svg" version="1.1" xmlns:xlink="http://www.w3.org/1999/xlink" width="512" height="512" x="0" y="0" viewBox="0 0 64 64" style="enable-background:new 0 0 512 512" xml:space="preserve" class=""><g><path d="M1 61h62v2H1zM27 33v26h2V34h6v25h2V33c0-.55-.45-1-1-1h-8c-.55 0-1 .45-1 1zM51 20h6v39h2V19c0-.55-.45-1-1-1h-8c-.55 0-1 .45-1 1v40h2zM15 59V46c0-.55-.45-1-1-1H6c-.55 0-1 .45-1 1v13h2V47h6v12zM9.344 19.242l9.898-9.898 1.414 1.414-9.898 9.898zM16.88 15.88c-.57.57-.88 1.32-.88 2.12s.31 1.55.88 2.12c.58.58 1.35.88 2.12.88s1.54-.29 2.12-.88c.57-.57.88-1.32.88-2.12s-.31-1.55-.88-2.12a3 3 0 0 0-4.24 0zM20 18a.996.996 0 1 1-1.99 0c0-.27.1-.52.29-.71.2-.19.45-.29.71-.29s.51.1.71.29c.19.19.29.44.29.71zM11 15c.77 0 1.54-.29 2.12-.88.57-.57.88-1.32.88-2.12s-.31-1.55-.88-2.12A3 3 0 0 0 8 12c0 .8.31 1.55.88 2.12A3 3 0 0 0 11 15zm-.71-3.71c.2-.19.45-.29.71-.29s.51.1.71.29c.19.19.29.44.29.71s-.1.52-.29.71a.996.996 0 0 1-1.7-.71c0-.27.1-.52.29-.71z" fill="#25405B" opacity="1" data-original="#000000" class=""></path><path d="M15 29c7.72 0 14-6.28 14-14S22.72 1 15 1 1 7.28 1 15s6.28 14 14 14zm0-26c6.62 0 12 5.38 12 12s-5.38 12-12 12S3 21.62 3 15 8.38 3 15 3z" fill="#25405B" opacity="1" data-original="#000000" class=""></path></g></svg>